<?xml version="1.0" encoding="UTF-8" standalone="no"?>
<!DOCTYPE svg PUBLIC "-//W3C//DTD SVG 1.1//EN" "http://www.w3.org/Graphics/SVG/1.1/DTD/svg11.dtd">
<svg width="100%" height="100%" viewBox="0 0 547 691" version="1.1" xmlns="http://www.w3.org/2000/svg" xmlns:xlink="http://www.w3.org/1999/xlink" xml:space="preserve" xmlns:serif="http://www.serif.com/" style="fill-rule:evenodd;clip-rule:evenodd;stroke-linejoin:round;stroke-miterlimit:2;">
    <g id="Group_5">
        <g id="Path_15" transform="matrix(1,0,0,1,64.244,135.793)">
            <rect x="0" y="0" width="991.9" height="492.924" style="fill:rgb(8,15,88);fill-rule:nonzero;"/>
        </g>
        <g id="Rectangle_3" transform="matrix(1,0,0,1,344.46,275.583)">
            <rect x="0" y="0" width="367.941" height="252.303" style="fill-opacity:0.1;"/>
        </g>
        <g id="Ellipse_3" transform="matrix(1,0,0,1,81.765,145.017)">
            <circle cx="11.681" cy="11.681" r="11.681" style="fill:white;"/>
        </g>
        <g id="Ellipse_4" transform="matrix(1,0,0,1,117.974,145.017)">
            <circle cx="11.681" cy="11.681" r="11.681" style="fill:white;"/>
        </g>
        <g id="Ellipse_5" transform="matrix(1,0,0,1,154.185,145.017)">
            <circle cx="11.681" cy="11.681" r="11.681" style="fill:white;"/>
        </g>
        <g id="Rectangle_4" transform="matrix(1,0,0,1,177.546,315.335)">
            <rect x="0" y="0" width="23.361" height="23.361" style="fill:white;"/>
        </g>
        <g id="Path_2" transform="matrix(1,0,0,1,0,7.276)">
            <path d="M747.563,670.5L14.017,670.5L14.017,275.693L16.353,275.693L16.353,668.164L747.563,668.164L747.563,670.5Z" style="fill:white;fill-rule:nonzero;"/>
        </g>
        <g id="Path_4" transform="matrix(1,0,0,1,-15.625,-105)">
            <path d="M30.81,384.6C22.48,384.6 15.625,377.745 15.625,369.415C15.625,361.085 22.48,354.23 30.81,354.23C39.14,354.23 45.995,361.085 45.995,369.415C45.995,377.745 39.14,384.6 30.81,384.6ZM30.81,356.566C23.761,356.566 17.961,362.366 17.961,369.415C17.961,376.464 23.761,382.264 30.81,382.264C37.859,382.264 43.659,376.464 43.659,369.415C43.657,362.367 37.858,356.569 30.81,356.569L30.81,356.566Z" style="fill:white;fill-rule:nonzero;"/>
        </g>
        <g id="Path_5" transform="matrix(1,0,0,1,-13.726,-100.466)">
            <path d="M250.407,699.981L239.976,729.181L216.533,729.181L216.533,699.4C218.262,662.033 239.233,644.466 239.883,643.929C224.126,659.129 225.878,711.665 225.878,711.665C236.391,666.11 245.735,664.942 245.735,664.942C240.082,673.434 237.161,712.062 236.986,714.468C237.686,706.347 250.407,699.981 250.407,699.981Z" style="fill:rgb(242,242,242);fill-rule:nonzero;"/>
        </g>
        <g id="Path_11" transform="matrix(1,0,0,1,4.416,5.571)">
            <path d="M499.665,523.318L502.335,523.318L502.475,522.388L499.315,522.588L487.825,523.318L466.325,524.678L499.665,523.318Z" style="fill:rgb(63,61,86);fill-rule:nonzero;"/>
        </g>
        <g id="Path_14" transform="matrix(1,0,0,1,-10.691,-103.302)">
            <path d="M355.53,360.07L355.53,631.06L785.38,631.06L785.38,360.07L355.53,360.07ZM783.05,628.73L357.87,628.73L357.87,362.41L783.05,362.41L783.05,628.73Z" style="fill:white;fill-rule:nonzero;"/>
        </g>
    </g>
</svg>
