<?xml version="1.0" encoding="UTF-8" standalone="no"?>
<!DOCTYPE svg PUBLIC "-//W3C//DTD SVG 1.1//EN" "http://www.w3.org/Graphics/SVG/1.1/DTD/svg11.dtd">
<svg width="100%" height="100%" viewBox="0 0 1000 1000" version="1.1" xmlns="http://www.w3.org/2000/svg" xmlns:xlink="http://www.w3.org/1999/xlink" xml:space="preserve" xmlns:serif="http://www.serif.com/" style="fill-rule:evenodd;clip-rule:evenodd;stroke-linejoin:round;stroke-miterlimit:2;">
    <g transform="matrix(1.24455,0,0,1.28035,-122.549,-176.667)">
        <path d="M120.272,470.189L120.272,402.702L316.169,326.351C359.831,309.334 404.071,301.236 448.891,302.057C493.712,302.877 535.836,312.571 575.265,331.138C608.037,346.571 629.601,362.295 639.956,378.311C645.786,387.328 648.37,396.109 647.71,404.654C647.979,408.173 647.709,411.652 646.901,415.092C647.545,417.93 647.848,420.742 647.807,423.529C672.005,421.942 696.629,423.356 721.681,427.769C749.326,432.64 776.206,441.224 802.321,453.522C846.966,474.545 872.3,495.624 878.32,516.757C878.731,518.196 879.074,520.882 879.336,524.042C879.518,525.295 879.648,526.612 879.728,528C879.771,528.741 879.771,529.519 879.729,530.328C879.959,535.413 879.994,540.481 879.789,543.066C880.253,555.28 880.384,584.021 879.63,591.528C879.845,594.391 879.706,597.252 879.213,600.115C874.659,626.569 844.756,650.564 789.503,672.098L576.798,755L120.272,470.189ZM706.547,556.222C669.953,539.28 631.544,538.65 591.314,554.33L544.502,572.575L590.892,601.371L701.591,558.226C703.296,557.561 704.949,556.893 706.547,556.222ZM879.759,542.335C879.768,542.037 879.767,541.838 879.742,541.933L879.751,542.124L879.759,542.335ZM495.837,446.05C462.702,431.239 426.707,431.405 387.853,446.549L359.382,457.645L400.412,483.242L495.837,446.05Z" style="fill:rgb(134,82,70);fill-rule:nonzero;"/>
    </g>
    <g transform="matrix(1.24455,0,0,1.28035,-122.549,-120.718)">
        <path d="M120.272,470.189L120.272,402.702L316.169,326.351C359.831,309.334 404.071,301.236 448.891,302.057C493.712,302.877 535.836,312.571 575.265,331.138C608.037,346.571 629.601,362.295 639.956,378.311C645.786,387.328 648.37,396.109 647.71,404.654C647.979,408.173 647.709,411.652 646.901,415.092C647.545,417.93 647.848,420.742 647.807,423.529C672.005,421.942 696.629,423.356 721.681,427.769C749.326,432.64 776.206,441.224 802.321,453.522C846.966,474.545 872.3,495.624 878.32,516.757C878.731,518.196 879.074,520.882 879.336,524.042C879.518,525.295 879.648,526.612 879.728,528C879.771,528.741 879.771,529.519 879.729,530.328C879.959,535.413 879.994,540.481 879.789,543.066C880.253,555.28 880.384,584.021 879.63,591.528C879.845,594.391 879.706,597.252 879.213,600.115C874.659,626.569 844.756,650.564 789.503,672.098L576.798,755L120.272,470.189ZM706.547,556.222C669.953,539.28 631.544,538.65 591.314,554.33L544.502,572.575L590.892,601.371L701.591,558.226C703.296,557.561 704.949,556.893 706.547,556.222ZM879.759,542.335C879.768,542.037 879.767,541.838 879.742,541.933L879.751,542.124L879.759,542.335ZM495.837,446.05C462.702,431.239 426.707,431.405 387.853,446.549L359.382,457.645L400.412,483.242L495.837,446.05Z" style="fill:white;fill-rule:nonzero;"/>
    </g>
</svg>
