<?xml version="1.0" encoding="UTF-8" standalone="no"?>
<!DOCTYPE svg PUBLIC "-//W3C//DTD SVG 1.1//EN" "http://www.w3.org/Graphics/SVG/1.1/DTD/svg11.dtd">
<svg width="100%" height="100%" viewBox="0 0 1000 1000" version="1.1" xmlns="http://www.w3.org/2000/svg" xmlns:xlink="http://www.w3.org/1999/xlink" xml:space="preserve" xmlns:serif="http://www.serif.com/" style="fill-rule:evenodd;clip-rule:evenodd;stroke-linejoin:round;stroke-miterlimit:2;">
    <g transform="matrix(1.29016,0,7.86717e-17,1.29016,-165.14,-89.021)">
        <path d="M903.098,240.572C903.098,145.879 826.219,69 731.526,69L299.572,69C204.879,69 128,145.879 128,240.572L128,672.526C128,767.219 204.879,844.098 299.572,844.098L731.526,844.098C826.219,844.098 903.098,767.219 903.098,672.526L903.098,240.572Z" style="fill:rgb(235,235,235);fill-opacity:0.69;"/>
    </g>
    <g transform="matrix(1.10923,0,0,1.10923,-38.0117,10.0597)">
        <text x="138px" y="429px" style="font-family:'Montserrat-BoldItalic', 'Montserrat';font-weight:700;font-style:italic;font-size:329.167px;">L</text>
        <text x="336.817px" y="429px" style="font-family:'Montserrat-BoldItalic', 'Montserrat';font-weight:700;font-style:italic;font-size:184.061px;">A</text>
    </g>
    <g transform="matrix(0.98866,0,0,0.98866,-66.0119,275.903)">
        <text x="138px" y="429px" style="font-family:'Montserrat-BoldItalic', 'Montserrat';font-weight:700;font-style:italic;font-size:285.482px;">B</text>
        <text x="356.394px" y="429px" style="font-family:'Montserrat-BoldItalic', 'Montserrat';font-weight:700;font-style:italic;font-size:225.381px;">IBLIO</text>
    </g>
</svg>
